<?xml version="1.0" encoding="UTF-8"?>
<svg width="132px" height="110px" viewBox="0 0 132 110" version="1.1" xmlns="http://www.w3.org/2000/svg" xmlns:xlink="http://www.w3.org/1999/xlink">
    <!-- Generator: Sketch 41.2 (35397) - http://www.bohemiancoding.com/sketch -->
    <title>Telegram_logo</title>
    <desc>Created with Sketch.</desc>
    <defs>
        <linearGradient x1="61.2346759%" y1="43.69%" x2="74.7064382%" y2="80.24%" id="linearGradient-1">
            <stop stop-color="#FFFFFF" offset="0%"></stop>
            <stop stop-color="#FFFFFF" offset="100%"></stop>
        </linearGradient>
    </defs>
    <g id="Page-1" stroke="none" stroke-width="1" fill="none" fill-rule="evenodd">
        <g id="Telegram_logo">
            <path d="M50,103 C46.1124,103 46.773,101.5321 45.4322,97.8305 L34,60.2059 L122,8" id="Shape" fill="#FFFFFF"></path>
            <path d="M50,103 C53,103 54.3255,101.628 56,100 L72,84.442 L52.042,72.407" id="Shape" fill="#FFFFFF"></path>
            <path d="M52.04,72.41 L100.4,108.139 C105.9185,111.1839 109.9014,109.6074 111.276,103.0155 L130.961,10.2525 C132.9764,2.1723 127.8809,-1.4925 122.6016,0.9043 L7.0116,45.4753 C-0.8785,48.64 -0.8325,53.0419 5.5734,55.0033 L35.2364,64.2616 L103.9094,20.9366 C107.1513,18.9707 110.1267,20.02761 107.6846,22.195" id="Shape" fill="url(#linearGradient-1)"></path>
        </g>
    </g>
</svg>