<?xml version="1.0" encoding="UTF-8"?>
<svg width="36px" height="36px" viewBox="0 0 36 36" version="1.1" xmlns="http://www.w3.org/2000/svg" xmlns:xlink="http://www.w3.org/1999/xlink">
    <!-- Generator: Sketch 43.2 (39069) - http://www.bohemiancoding.com/sketch -->
    <title>Group 7</title>
    <desc>Created with Sketch.</desc>
    <defs></defs>
    <g id="Page-1" stroke="none" stroke-width="1" fill="none" fill-rule="evenodd">
        <g id="Group-7" fill-rule="nonzero" fill="#770C56">
            <path d="M18,0 C17.4477,0 17,0.4477 17,1 L17,7.00002 C17,7.55232 17.4477,8.00002 18,8.00002 C18.5523,8.00002 19,7.55232 19,7.00002 L19,1 C19,0.4477 18.5523,0 18,0 Z M5.9688,4.9687 C5.7128,4.9687 5.4765,5.086 5.2812,5.2812 C4.8908,5.67182 4.8907,6.29702 5.2812,6.68752 L9.5,10.93752 C9.8905,11.32802 10.547,11.32812 10.9375,10.93752 C11.3281,10.54702 11.3281,9.89052 10.9375,9.50002 L6.6875,5.2812 C6.4923,5.086 6.2247,4.9687 5.9688,4.9687 Z M30.0312,4.9687 C29.7753,4.9687 29.5077,5.086 29.3125,5.2812 L25.0625,9.50002 C24.6719,9.89052 24.6719,10.54702 25.0625,10.93752 C25.453,11.32812 26.1095,11.32802 26.5,10.93752 L30.7188,6.68752 C31.1093,6.29702 31.1092,5.67182 30.7188,5.2812 C30.5235,5.086 30.2872,4.9687 30.0312,4.9687 Z M1,17.00002 C0.4479,17.00012 0.0001,17.44782 0,18.00002 C0,18.55232 0.4476,19.00012 1,19.00002 L7,19.00002 C7.5522,19.00002 8,18.55232 8,18.00002 C8,17.44772 7.5523,17.00002 7,17.00002 L1,17.00002 Z M29,17.00002 C28.4477,17.00002 28,17.44772 28,18.00002 C28,18.55232 28.4478,19.00002 29,19.00002 L35,19.00002 C35.5524,19.00012 36,18.55232 36,18.00002 C35.9999,17.44782 35.5521,17.00012 35,17.00002 L29,17.00002 Z M10.2188,24.78122 C9.9628,24.78122 9.6952,24.86722 9.5,25.06252 L5.2812,29.31252 C4.891,29.70292 4.8909,30.32822 5.2812,30.71872 C5.6718,31.10922 6.2969,31.10952 6.6875,30.71872 L10.9375,26.50002 C11.328,26.10952 11.3281,25.45302 10.9375,25.06252 C10.7423,24.86722 10.4747,24.78122 10.2188,24.78122 L10.2188,24.78122 Z M25.7812,24.78122 C25.5253,24.78122 25.2577,24.86722 25.0625,25.06252 C24.6719,25.45302 24.672,26.10952 25.0625,26.50002 L29.3125,30.71872 C29.7031,31.10952 30.3282,31.10922 30.7188,30.71872 C31.1091,30.32822 31.109,29.70292 30.7188,29.31252 L26.5,25.06252 C26.3048,24.86722 26.0372,24.78122 25.7812,24.78122 L25.7812,24.78122 Z M18,28.00002 C17.4477,28.00002 17,28.44772 17,29.00002 L17,35.00002 C17,35.55232 17.4477,36.00002 18,36.00002 C18.5523,36.00002 19,35.55232 19,35.00002 L19,29.00002 C19,28.44772 18.5523,28.00002 18,28.00002 Z" id="Shape"></path>
        </g>
    </g>
</svg>