<?xml version="1.0" encoding="UTF-8" standalone="no"?>
<svg width="32px" height="30px" viewBox="0 0 32 30" version="1.1" xmlns="http://www.w3.org/2000/svg" xmlns:xlink="http://www.w3.org/1999/xlink" xmlns:sketch="http://www.bohemiancoding.com/sketch/ns">
    <!-- Generator: Sketch 3.3.3 (12072) - http://www.bohemiancoding.com/sketch -->
    <title>Untitled 5</title>
    <desc>Created with Sketch.</desc>
    <defs></defs>
    <g id="Page-1" stroke="none" stroke-width="1" fill="none" fill-rule="evenodd" sketch:type="MSPage">
        <path d="M16.1695005,18.7467082 C21.1307052,18.7467082 25.1525563,14.6324008 25.1525563,9.55714537 C25.1525563,4.48188995 21.1307052,0.367582514 16.1695005,0.367582514 C11.2082957,0.367582514 7.18644466,4.48188995 7.18644466,9.55714537 C7.18644466,14.6324008 11.2082957,18.7467082 16.1695005,18.7467082 Z" id="Oval-1-Copy" stroke="#770C56" sketch:type="MSShapeGroup"></path>
        <g id="Oval-1-+-Oval-1-Copy-2" sketch:type="MSLayerGroup" transform="translate(0.359322, 10.659893)" stroke="#770C56">
            <path d="M8.98305582,18.3791257 C13.9442606,18.3791257 17.9661116,14.2648183 17.9661116,9.18956285 C17.9661116,4.11430743 13.9442606,0 8.98305582,0 C4.02185108,0 0,4.11430743 0,9.18956285 C0,14.2648183 4.02185108,18.3791257 8.98305582,18.3791257 Z" id="Oval-1" sketch:type="MSShapeGroup"></path>
            <path d="M22.2779784,18.3791257 C27.2391832,18.3791257 31.2610343,14.2648183 31.2610343,9.18956285 C31.2610343,4.11430743 27.2391832,0 22.2779784,0 C17.3167737,0 13.2949226,4.11430743 13.2949226,9.18956285 C13.2949226,14.2648183 17.3167737,18.3791257 22.2779784,18.3791257 Z" id="Oval-1-Copy-2" sketch:type="MSShapeGroup"></path>
        </g>
    </g>
</svg>