<?xml version="1.0" encoding="UTF-8" standalone="no"?>
<svg width="33px" height="35px" viewBox="0 0 33 35" version="1.1" xmlns="http://www.w3.org/2000/svg" xmlns:xlink="http://www.w3.org/1999/xlink" xmlns:sketch="http://www.bohemiancoding.com/sketch/ns">
    <!-- Generator: Sketch 3.3.3 (12072) - http://www.bohemiancoding.com/sketch -->
    <title>Untitled 12</title>
    <desc>Created with Sketch.</desc>
    <defs></defs>
    <g id="Page-1" stroke="none" stroke-width="1" fill="none" fill-rule="evenodd" sketch:type="MSPage">
        <path d="M17.9133252,0.6 C15.7430587,0.6 13.6737347,1.05424184 11.7558247,1.96272552 C6.70869319,4.33487734 3.42805769,9.4324802 3.42805769,15.0347962 L3.42805769,17.2050628 L0.652135339,22.5045509 C0.1978935,23.3120919 0.1978935,24.119633 0.551192708,24.7757601 C0.954963231,25.3814159 1.66156165,25.7347151 2.57004532,25.7347151 L3.37758637,25.7347151 L3.37758637,30.3780761 C3.37758637,32.2455148 4.89172583,33.8101256 6.80963582,33.8101256 L6.86010714,33.8101256 L10.8978124,33.2044698 L10.8978124,33.2044698 L19.0741655,31.7912729 C20.9416041,31.5389164 22.2538583,29.8733629 22.0519731,28.0059243 L22.0519731,20.8389975 C24.8783667,20.5866409 27.1495759,18.2144891 27.1495759,15.2871528 C27.1495759,12.2084025 24.6260102,9.68483678 21.5472599,9.68483678 C18.4685097,9.68483678 15.9449439,12.2084025 15.9449439,15.2871528 C15.9449439,18.2144891 18.1656818,20.5866409 21.0425468,20.8389975 L21.0425468,28.0059243 C21.0425468,28.0059243 21.0425468,28.0059243 21.0425468,28.0563956 C21.0425468,28.0563956 21.0425468,28.0563956 21.0425468,28.1068669 C21.1939607,29.4191211 20.285477,30.6304327 18.9227515,30.8323179 L10.7463984,32.2455148 L6.75916451,32.8511706 C5.4469103,32.8511706 4.38701268,31.7408016 4.38701268,30.4285474 L4.38701268,25.2804732 C4.38701268,24.9776454 4.18512742,24.7757601 3.88229953,24.7757601 L2.57004532,24.7757601 C2.01486086,24.7757601 1.61109033,24.6243461 1.40920507,24.2710469 C1.20731981,23.968219 1.25779112,23.5139772 1.5101477,23.009264 L4.33654136,17.6088333 C4.38701268,17.558362 4.38701268,17.4574194 4.38701268,17.3564767 L4.38701268,15.0347962 C4.38701268,9.83625072 7.41529161,5.09194707 12.1595953,2.87120919 C13.9765626,2.01319683 15.8944726,1.60942631 17.8628539,1.60942631 C25.231666,1.60942631 31.2882238,7.61551284 31.2882238,15.0347962 C31.2882238,18.7696736 29.723613,22.4036083 26.9476907,24.927174 C26.846748,25.0281167 26.7962767,25.1795306 26.7962767,25.2804732 L26.7962767,29.721949 L26.7962767,33.8605969 C26.7962767,34.1634248 26.998162,34.36531 27.3009899,34.36531 C27.6038178,34.36531 27.805703,34.1634248 27.805703,33.8605969 L27.805703,29.721949 L27.805703,25.4823585 C30.682568,22.7569075 32.2976501,18.9715588 32.2976501,15.0347962 C32.2976501,7.06032837 25.8373217,0.6 17.9133252,0.6 L17.9133252,0.6 Z M17.0048415,15.2366815 C17.0048415,12.7131157 19.0741655,10.6437918 21.5977312,10.6437918 C24.121297,10.6437918 26.1906209,12.7131157 26.1906209,15.2366815 C26.1906209,17.7602472 24.121297,19.8295712 21.5977312,19.8295712 C19.0741655,19.8295712 17.0048415,17.7602472 17.0048415,15.2366815 L17.0048415,15.2366815 Z" id="Shape" fill="#770C56" sketch:type="MSShapeGroup"></path>
    </g>
</svg>