<?xml version="1.0" encoding="UTF-8"?>
<svg width="149px" height="48px" viewBox="0 0 149 48" version="1.1" xmlns="http://www.w3.org/2000/svg" xmlns:xlink="http://www.w3.org/1999/xlink">
    <!-- Generator: Sketch 41.2 (35397) - http://www.bohemiancoding.com/sketch -->
    <title>Untitled</title>
    <desc>Created with Sketch.</desc>
    <defs></defs>
    <g id="Page-1" stroke="none" stroke-width="1" fill="none" fill-rule="evenodd">
        <g id="full_logo" fill="#3D64AC">
            <g id="Group">
                <path d="M33.2,19.8 L13.5,0.1 L9.5,4.1 L16.9,11.5 L0.9,27.5 L20.6,47.2 L24.6,43.2 L17.2,35.8 L33.2,19.8 Z M9.8,28.1 L21.7,16.2 L24.1,18.6 L12.2,30.6 L9.8,28.1 Z" id="Shape"></path>
                <g transform="translate(38.000000, 0.000000)" id="Shape">
                    <path d="M8.8,5.8 L8.8,11.8 L15.4,11.8 L15.4,15.3 L8.8,15.3 L8.8,28.9 C8.8,32 9.7,33.8 12.2,33.8 C13.4,33.8 14.2,33.7 14.9,33.5 L15.1,37 C14.2,37.3 12.8,37.6 11,37.6 C8.9,37.6 7.1,36.9 6.1,35.7 C4.9,34.3 4.3,32.1 4.3,29.1 L4.3,15.3 L0.4,15.3 L0.4,11.8 L4.3,11.8 L4.3,7.1 L8.8,5.8 Z"></path>
                    <path d="M40,24.3 C40,33.6 33.5,37.7 27.4,37.7 C20.6,37.7 15.3,32.7 15.3,24.7 C15.3,16.3 20.9,11.4 27.8,11.4 C35.1,11.3 40,16.6 40,24.3 Z M20.1,24.5 C20.1,30 23.2,34.2 27.7,34.2 C32.1,34.2 35.4,30.1 35.4,24.4 C35.4,20.1 33.3,14.8 27.8,14.8 C22.4,14.8 20.1,19.8 20.1,24.5 Z"></path>
                    <path d="M42.3,20.1 C42.3,16.9 42.2,14.3 42.1,11.9 L46.2,11.9 L46.5,16.2 L46.6,16.2 C48.4,13.1 51.4,11.4 55.6,11.4 C61.7,11.4 66.3,16.6 66.3,24.2 C66.3,33.3 60.7,37.7 54.8,37.7 C51.5,37.7 48.5,36.2 47,33.7 L46.9,33.7 L46.9,47.4 L42.4,47.4 L42.4,20.1 L42.3,20.1 Z M46.8,26.8 C46.8,27.5 46.9,28.1 47,28.7 C47.8,31.9 50.6,34.1 53.9,34.1 C58.7,34.1 61.6,30.1 61.6,24.4 C61.6,19.4 58.9,15.1 54.1,15.1 C51,15.1 48,17.3 47.2,20.7 C47,21.3 46.9,22 46.9,22.5 L46.9,26.8 L46.8,26.8 Z"></path>
                    <path d="M75,5.8 L75,11.8 L81.6,11.8 L81.6,15.3 L75,15.3 L75,28.9 C75,32 75.9,33.8 78.4,33.8 C79.6,33.8 80.4,33.7 81.1,33.5 L81.3,37 C80.4,37.3 79,37.6 77.2,37.6 C75.1,37.6 73.3,36.9 72.3,35.7 C71,34.3 70.5,32.1 70.5,29.1 L70.5,15.3 L66.6,15.3 L66.6,11.8 L70.5,11.8 L70.5,7.1 L75,5.8 Z"></path>
                    <path d="M102.4,31 C102.4,33.2 102.5,35.3 102.8,37 L98.7,37 L98.3,33.8 L98.1,33.8 C96.7,35.8 94,37.6 90.4,37.6 C85.3,37.6 82.7,34 82.7,30.4 C82.7,24.3 88.1,21 97.9,21 L97.9,20.5 C97.9,18.5 97.3,14.7 92.2,14.7 C89.8,14.7 87.4,15.4 85.6,16.6 L84.6,13.5 C86.7,12.2 89.8,11.3 92.9,11.3 C100.6,11.3 102.5,16.6 102.5,21.6 L102.5,31 L102.4,31 Z M98,24.2 C93,24.1 87.3,25 87.3,29.9 C87.3,32.9 89.3,34.3 91.6,34.3 C94.9,34.3 97.1,32.2 97.8,30.1 C98,29.6 98,29.1 98,28.6 L98,24.2 Z"></path>
                    <polygon points="105.8 0.1 110.4 0.1 110.4 37.1 105.8 37.1"></polygon>
                </g>
            </g>
        </g>
    </g>
</svg>